<?xml version="1.0" encoding="utf-8"?>
<svg version="1.1" xmlns="http://www.w3.org/2000/svg" xmlns:xlink="http://www.w3.org/1999/xlink" x="0px" y="0px" viewBox="0 0 256 256" enable-background="new 0 0 256 256" xml:space="preserve">

<g><g><path fill="#000000" d="M211.5,211.2C190.2,232.8,160.8,246,128,246c-32.5,0-61.9-13.2-83.5-34.8C23.2,190,10,160.6,10,128.2C10,95.4,23.2,66,44.5,44.8C66.1,23.2,95.5,10,128,10c32.8,0,62.2,13.2,83.5,34.8C232.8,66,246,95.4,246,128.2C246,160.6,232.8,190,211.5,211.2z M202.1,54.2c-18.9-18.9-45-30.4-74.1-30.4c-28.7,0-54.8,11.5-73.7,30.4c-18.9,18.9-30.8,44.9-30.8,73.9c0,28.7,11.8,54.7,30.8,73.6c18.9,18.9,45,30.4,73.7,30.4c29.1,0,55.1-11.5,74.1-30.4c18.6-18.9,30.4-44.9,30.4-73.6C232.5,99.1,220.6,73.1,202.1,54.2z M175.3,194.7l-11.2,5.4l-18.3-38.5l-0.7-1.3c0,0,8.5-3.7,12.8-4.7c4-1.3,5.1,2,5.1,2s11.2,23.3,13.9,29C179.7,192.3,175.3,194.7,175.3,194.7z M94.9,150.4c-35.1-67.3-3.6-89-3.7-90.1c0.3,0.8,3.1,7.2,18.3,39.1c-4.1,0-4.1,3.4-1.7,13.5c2,10.5,16.2,37.5,22.7,45.9c6.1,8.1,10.8,4.4,10.8,4.4l17.2,38.8C158.4,202.1,129.7,217.6,94.9,150.4z M91.2,60.3L91.2,60.3C91.1,60.2,91.1,60.2,91.2,60.3z M126,91.7l-11.1,5.4L96.5,58.6l-0.7-1c0,0,8.5-3.7,12.8-5.1c4.1-1,5.1,2,5.1,2s11.1,23.6,13.9,29.4C130.4,89.7,126,91.7,126,91.7z"/></g></g>
</svg>